<?xml version="1.0" encoding="utf-8"?>
<!-- Generator: Adobe Illustrator 28.2.0, SVG Export Plug-In . SVG Version: 6.00 Build 0)  -->
<svg version="1.1" id="Ebene_1" xmlns="http://www.w3.org/2000/svg" xmlns:xlink="http://www.w3.org/1999/xlink" x="0px" y="0px"
	 viewBox="0 0 440.47 129.55" style="enable-background:new 0 0 440.47 129.55;" xml:space="preserve">
<style type="text/css">
	.st0{fill:#FFFFFF;}
	.st1{opacity:0.6;}
	.st2{fill-rule:evenodd;clip-rule:evenodd;fill:#EC6726;}
</style>
<g id="Logo_00000003095499129166098150000008684721280523552656_">
	<g id="Text_00000114759095882757165470000002338931282063078079_">
		<g>
			<path class="st0" d="M116.34,82.87v-71h12.11v71H116.34z M122,55.33V43.71h12.55c1.5,0,2.67-0.51,3.52-1.54
				c0.85-1.03,1.27-2.45,1.27-4.27v-8.35c0-1.92-0.42-3.41-1.25-4.47c-0.83-1.06-2.01-1.59-3.54-1.59H122V11.87h12.89
				c3.55,0,6.56,0.62,9.03,1.86c2.47,1.24,4.37,3.04,5.69,5.42c1.32,2.38,1.98,5.26,1.98,8.64v11.96c0,3.29-0.66,6.1-1.98,8.42
				c-1.32,2.33-3.22,4.1-5.71,5.32s-5.49,1.83-9.01,1.83H122z"/>
			<path class="st0" d="M179.73,83.6c-3.81,0-7.07-0.66-9.79-1.98c-2.72-1.32-4.79-3.22-6.23-5.71c-1.43-2.49-2.15-5.49-2.15-9.01
				V27.84c0-3.55,0.72-6.57,2.15-9.06c1.43-2.49,3.51-4.39,6.23-5.69c2.72-1.3,5.98-1.95,9.79-1.95s7.07,0.65,9.79,1.95
				c2.72,1.3,4.79,3.2,6.23,5.69c1.43,2.49,2.15,5.51,2.15,9.06V66.9c0,3.52-0.72,6.52-2.15,9.01c-1.43,2.49-3.51,4.39-6.23,5.71
				C186.8,82.94,183.54,83.6,179.73,83.6z M179.73,71.49c1.89,0,3.34-0.54,4.37-1.61s1.54-2.59,1.54-4.54V29.3
				c0-1.92-0.51-3.42-1.54-4.49s-2.48-1.61-4.37-1.61c-1.86,0-3.3,0.54-4.32,1.61s-1.54,2.57-1.54,4.49v36.04
				c0,1.95,0.51,3.47,1.54,4.54S177.87,71.49,179.73,71.49z"/>
			<path class="st0" d="M208.11,82.87V11.82h11.87v71.04H208.11z M213.53,52.84V41.22h12.79c1.59,0,2.83-0.42,3.71-1.25
				s1.32-1.98,1.32-3.44v-7.91c0-1.63-0.44-2.9-1.32-3.81c-0.88-0.91-2.12-1.37-3.71-1.37h-12.79V11.82h12.06
				c3.84,0,7.12,0.63,9.84,1.88c2.72,1.25,4.79,3.08,6.23,5.49c1.43,2.41,2.15,5.32,2.15,8.74v8.3c0,3.52-0.72,6.51-2.15,8.98
				c-1.43,2.47-3.51,4.36-6.23,5.66c-2.72,1.3-6,1.95-9.84,1.95H213.53z M232.82,82.87l-9.42-32.23l11.08-2.25l11.33,34.47H232.82z"
				/>
			<path class="st0" d="M250.89,23.49V11.87h35.55v11.62H250.89z M262.61,82.87V17.83h12.11v65.04H262.61z"/>
			<path class="st0" d="M286.89,82.87l16.94-71h8.5l16.94,71h-12.01l-9.18-46.53l-9.18,46.53H286.89z M298.41,71.83V60.5h19.34
				v11.33H298.41z"/>
			<path class="st0" d="M337.04,82.87v-71h12.11v71H337.04z M342.02,82.87V71.25h25.59v11.62H342.02z"/>
			<path class="st0" d="M399.33,82.87V71.78l17.88-24.9c2.73-3.78,4.72-7.15,5.98-10.11c1.26-2.96,1.89-5.53,1.89-7.71v-0.93
				c0-1.63-0.45-2.88-1.34-3.76c-0.9-0.88-2.16-1.32-3.78-1.32c-1.83,0-3.25,0.56-4.24,1.68s-1.5,2.71-1.5,4.76v2.54h-15.38V29.5
				c0-5.83,1.81-10.34,5.43-13.55c3.62-3.21,8.75-4.81,15.38-4.81c6.63,0,11.76,1.48,15.38,4.44c3.62,2.96,5.43,7.16,5.43,12.6v0.93
				c0,2.6-0.71,5.61-2.14,9.01c-1.42,3.4-3.58,7.27-6.47,11.6l-14.1,21.24h22.58v11.91H399.33z"/>
		</g>
		<g class="st1">
			<path class="st0" d="M124.72,122.13c-1.67,0-3.11-0.36-4.32-1.07c-1.21-0.71-2.15-1.72-2.81-3.03c-0.66-1.31-0.99-2.87-0.99-4.7
				v-10.95c0-1.83,0.33-3.41,0.99-4.71c0.66-1.31,1.6-2.32,2.81-3.03c1.21-0.71,2.65-1.07,4.32-1.07c1.58,0,2.95,0.32,4.11,0.96
				c1.16,0.64,2.08,1.58,2.76,2.8c0.68,1.23,1.08,2.7,1.19,4.44h-3.29c-0.12-1.06-0.38-1.97-0.81-2.72
				c-0.42-0.75-0.97-1.32-1.65-1.72c-0.67-0.4-1.45-0.6-2.32-0.6c-1.48,0-2.65,0.51-3.52,1.52c-0.87,1.01-1.31,2.39-1.31,4.14v10.95
				c0,1.75,0.44,3.12,1.31,4.13c0.87,1.01,2.05,1.51,3.52,1.51c1.31,0,2.39-0.43,3.24-1.3c0.85-0.87,1.36-2.11,1.53-3.74h3.29
				c-0.12,1.73-0.52,3.21-1.2,4.44c-0.69,1.23-1.61,2.16-2.76,2.8C127.66,121.81,126.29,122.13,124.72,122.13z"/>
			<path class="st0" d="M145.62,122.13c-1.76,0-3.26-0.34-4.51-1.03c-1.25-0.69-2.21-1.68-2.88-2.97s-1-2.85-1-4.66v-11.24
				c0-1.81,0.33-3.36,1-4.66s1.63-2.29,2.88-2.97c1.25-0.69,2.75-1.03,4.51-1.03s3.26,0.34,4.51,1.03c1.25,0.69,2.21,1.68,2.88,2.97
				s1,2.85,1,4.66v11.24c0,1.81-0.33,3.36-1,4.66s-1.63,2.29-2.88,2.97C148.88,121.79,147.37,122.13,145.62,122.13z M145.62,118.96
				c1.59,0,2.83-0.48,3.73-1.43c0.9-0.96,1.35-2.27,1.35-3.93v-11.47c0-1.68-0.45-3-1.35-3.95c-0.9-0.95-2.14-1.42-3.73-1.42
				s-2.84,0.47-3.74,1.42c-0.9,0.95-1.36,2.26-1.36,3.95v11.47c0,1.67,0.45,2.98,1.36,3.93
				C142.78,118.48,144.03,118.96,145.62,118.96z"/>
			<path class="st0" d="M170.16,113.01l7.31-19.15h3.14v27.98h-3.16V99.67l0.25,1.23l-6.37,16.88h-2.35l-6.37-16.49l0.27-1.62v22.17
				h-3.18V93.86h3.16L170.16,113.01z"/>
			<path class="st0" d="M197.43,113.01l7.31-19.15h3.14v27.98h-3.16V99.67l0.25,1.23l-6.37,16.88h-2.35l-6.37-16.49l0.27-1.62v22.17
				h-3.18V93.86h3.16L197.43,113.01z"/>
			<path class="st0" d="M222.04,122.13c-2.66,0-4.67-0.71-6.03-2.15c-1.37-1.43-2.05-3.52-2.05-6.28V93.86h3.29v19.95
				c0,1.68,0.4,2.95,1.21,3.81s2,1.29,3.58,1.29c1.59,0,2.79-0.43,3.61-1.29c0.81-0.86,1.22-2.13,1.22-3.81V93.86h3.29v19.84
				c0,2.76-0.69,4.85-2.07,6.28C226.71,121.42,224.7,122.13,222.04,122.13z"/>
			<path class="st0" d="M235.86,121.82V93.86h3.02l11.64,22.8l-0.69,0.19V93.86h3.23v27.96h-3.08l-11.66-22.61l0.75-0.1v22.71
				H235.86z"/>
			<path class="st0" d="M262.96,93.86v27.98h-3.29V93.86H262.96z"/>
			<path class="st0" d="M268.22,96.96v-3.1h16.66v3.1H268.22z M274.89,121.84V95.86h3.29v25.98H274.89z"/>
			<path class="st0" d="M305.3,93.86l-7.22,16.41v11.57h-3.29v-11.57l-7.29-16.41h3.48l5.46,12.91l5.37-12.91H305.3z"/>
			<path class="st0" d="M318.74,121.84V93.86h3.29v27.98H318.74z M320.64,96.96v-3.1h13.08v3.1H320.64z M320.64,109.49v-3.08h11.55
				v3.08H320.64z M320.64,121.84v-3.1h13.08v3.1H320.64z"/>
			<path class="st0" d="M338.95,121.84V93.86h3.29v27.98H338.95z M341.22,121.84v-3.1h6.16c1.5,0,2.64-0.38,3.43-1.15
				c0.78-0.77,1.17-1.88,1.17-3.33v-12.82c0-1.45-0.39-2.56-1.17-3.33c-0.78-0.77-1.92-1.15-3.43-1.15h-6.16v-3.1h6.04
				c2.6,0,4.59,0.66,5.96,1.98c1.37,1.32,2.06,3.23,2.06,5.73v12.55c0,1.67-0.31,3.08-0.92,4.22c-0.62,1.15-1.52,2.02-2.71,2.61
				c-1.19,0.59-2.66,0.89-4.41,0.89H341.22z"/>
			<path class="st0" d="M364.51,93.86v27.98h-3.29V93.86H364.51z"/>
			<path class="st0" d="M369.76,96.96v-3.1h16.66v3.1H369.76z M376.44,121.84V95.86h3.29v25.98H376.44z"/>
			<path class="st0" d="M394.2,93.86v27.98h-3.29V93.86H394.2z"/>
			<path class="st0" d="M408.91,122.13c-1.76,0-3.26-0.34-4.51-1.03c-1.25-0.69-2.21-1.68-2.88-2.97s-1-2.85-1-4.66v-11.24
				c0-1.81,0.33-3.36,1-4.66s1.63-2.29,2.88-2.97c1.25-0.69,2.75-1.03,4.51-1.03c1.76,0,3.26,0.34,4.51,1.03
				c1.25,0.69,2.21,1.68,2.88,2.97s1,2.85,1,4.66v11.24c0,1.81-0.33,3.36-1,4.66s-1.63,2.29-2.88,2.97
				C412.17,121.79,410.67,122.13,408.91,122.13z M408.91,118.96c1.59,0,2.83-0.48,3.73-1.43c0.9-0.96,1.35-2.27,1.35-3.93v-11.47
				c0-1.68-0.45-3-1.35-3.95c-0.9-0.95-2.14-1.42-3.73-1.42s-2.84,0.47-3.74,1.42c-0.9,0.95-1.36,2.26-1.36,3.95v11.47
				c0,1.67,0.45,2.98,1.36,3.93C406.07,118.48,407.32,118.96,408.91,118.96z"/>
			<path class="st0" d="M423,121.82V93.86h3.02l11.64,22.8l-0.69,0.19V93.86h3.23v27.96h-3.08l-11.66-22.61l0.75-0.1v22.71H423z"/>
		</g>
	</g>
	<g id="Icon_00000140716340568838591020000007209717081622135971_">
		<g>
			<g>
				<path class="st0" d="M90.32,91.52c-1.73,4.66-8.91,2.23-8.91,2.23l-8.35-5.45l-10.04-6.54l-1.13-0.74l-6.13-17.3L39.67,84.24
					c0,0,8.8,8.78,13.53,14.65c0.53,0.66,1,1.27,1.41,1.84c0.81,1.13,1.35,2.06,1.47,2.64c0.82,3.85-1.41,6.65-1.41,6.65l-9.28,10.4
					l-7.92,8.87c-3.92-0.59-8.28-2.32-12.76-6.06l3.68-4.16l0.49-0.56l5.45-6.17l5.16-5.84C27.62,90.03,20.21,86.1,20.21,86.1
					l-5.22,6.57l-5.92,7.47c-1.1-2.63-2.19-5.5-3.28-8.63c-0.87-2.52-1.63-5.38-2.28-8.35l6.24-7.99l22.99-29.44l-13.32-8.7
					l-5.36,4.51l-2.69,2.27l-3.16,2.65L5.89,48.4c0,0-3.01,2.57-5.79,2.11c0.21-4.08,0.81-8.2,1.57-12.01
					c2.74-2.52,6.57-5.98,9.9-8.79l0-0.01c0.48-0.42,0.96-0.81,1.42-1.18c1.76-1.47,3.3-2.64,4.28-3.22c0.4-0.25,0.71-0.4,0.92-0.43
					c2.51-0.4,5.37,0.78,5.37,0.78l37.64,25.14l4.37,2.92l5.65,19.42c0,0,1.05,0.68,2.64,1.69c4.2,2.7,12.09,7.74,13.72,8.64
					C89.85,84.69,92.04,86.85,90.32,91.52z"/>
			</g>
		</g>
		<path class="st2" d="M73.87,74.8c0.01-5.95-0.31-12.91-1.12-19.73c-0.92-7.8-3.11-20.07-6.68-29.27
			c-2.31-5.9-4.07-9.29-5.29-10.83c-1.09-1.4-1.75-1.32-1.44,0.26c0.27,1.3,1.94,4.56,2.99,7.62c1.57,4.6,5.67,16.53,4.08,14.34
			c-0.69-0.97-4.34-11.67-9.59-19.35C51.76,10.45,44.89-0.62,29.47,0.03c-7.53,0.32-17.96,6.75-23.7,23.19
			c-1.02,2.93-2.79,8.63-4.11,15.28c-0.76,3.81-1.36,7.93-1.57,12.01c-0.07,1.01-0.1,2.02-0.1,3.02c-0.01,3.03,0.84,17.4,3.5,29.63
			c0.66,2.97,1.41,5.83,2.28,8.35c1.09,3.13,2.18,6,3.28,8.63c1.82,4.35,3.68,8.02,5.6,11.1c3.34,5.36,6.73,9.23,10.05,12.01
			c4.47,3.74,8.84,5.47,12.76,6.06c2.54,0.38,4.9,0.29,6.98-0.04c0.93-0.21,12.41-2.9,20.04-16.39c1.72-3.03,6.75-12.88,8.56-24.58
			c0.05-0.28,0.09-0.58,0.13-0.87C73.59,84.52,73.86,80.04,73.87,74.8z M57.38,106.07c-3.19,6.99-6.99,10.94-10.42,13.37
			c-0.52,0.38-1.04,0.7-1.56,0.99c-7.56,4.28-14.44,0.46-16.99-1.34c-0.67-0.48-1.05-0.81-1.05-0.81s-0.27-0.65,0.35-0.27
			c0.26,0.15,0.73,0.36,1.19,0.53c0.58,0.22,1.1,0.4,1.1,0.4s8.61,2.93,15.42-4.05c4.39-4.51,7.33-9.79,9.2-14.15
			c2.15-4.97,2.93-8.76,2.94-8.84c0.16-1.62-0.71-1.56-1.08-0.45c-0.47,1.47-1.65,4.38-3.27,7.45c-1.26,2.42-2.8,4.95-4.46,6.92
			c-4.09,4.84-9.06,6.14-9.06,6.14s-2.4,0.76-5.34,0.41l-0.29-0.04c-1.91-0.27-3.81-1.23-5.98-2.49
			c-3.75-2.17-7.48-7.92-10.56-12.59c-0.93-1.41-1.77-2.96-2.53-4.58c-2.59-5.54-4.23-12.06-5.25-17.5
			c-1.22-6.5-1.55-11.47-1.55-11.47s-0.55-8.4,0.02-17.24c0.1-1.71,0.25-3.43,0.45-5.11c0.44-3.67,1.68-8.02,2.91-11.63l0-0.01
			c1.53-4.5,3.02-7.85,2.87-7.22c-0.16,0.71-0.86,3.11-1.45,6.03c-0.18,0.81-0.34,1.66-0.48,2.53c-0.82,4.96-1.22,10.33-1.21,11
			c0.02,0.59,0.04,1.18,0.06,1.76c0.26,6.61,0.94,12.85,1.67,15.23c0.32,1.05,1.54,1.64,1.4-0.42c-0.22-3.43-0.73-10.92-0.38-17.08
			c0.02-0.28,0.03-0.55,0.06-0.83c0.04-0.39,0.16-8.04,3.17-15.41c0.2-0.51,0.41-1.01,0.65-1.51c1.92-4.11,3.85-7.13,5.88-9.1
			c3.18-3.08,6.2-3.81,6.76-3.91c3.01-0.49,6.53,0.04,9.8,2.04c3.36,2.05,6.92,5.98,10.11,10.91c3.4,5.27,6.22,11.94,8.35,18.22
			c1.02,3,1.8,6.04,2.39,8.83c1.37,6.59,1.69,11.77,1.69,11.77s0.68,9.41,0.25,17.12c-0.04,0.71-0.08,1.41-0.14,2.1
			C62.22,92.66,59.98,100.37,57.38,106.07z"/>
		<g>
			<path class="st0" d="M55.02,40.05c-2.31-1.56-4.62-3.12-6.94-4.67c-0.25-0.17-0.33-0.33-0.31-0.63
				c0.4-5.58,0.79-11.16,1.17-16.75c0.02-0.27,0.12-0.4,0.35-0.52c5.02-2.44,10.04-4.89,15.05-7.34c0.28-0.14,0.47-0.14,0.74,0.04
				c4.62,3.13,9.24,6.25,13.87,9.36c0.25,0.17,0.33,0.33,0.31,0.63c-0.4,5.58-0.79,11.16-1.17,16.75c-0.02,0.27-0.12,0.4-0.35,0.52
				c-5.02,2.44-10.04,4.89-15.05,7.34c-0.3,0.15-0.51,0.11-0.77-0.07C59.63,43.15,57.32,41.6,55.02,40.05z"/>
		</g>
		<path class="st0" d="M87.59,83.44C85.34,82.2,71.24,73.1,71.24,73.1l-5.65-19.42l-37.2-24.83L23.53,39.7l9.21,6.02l-7.31,9.36
			l20.11,21.68l10.22-13.04l6.14,17.3l19.51,12.73c0,0,7.18,2.43,8.91-2.23C92.05,86.85,89.85,84.69,87.59,83.44z"/>
	</g>
</g>
</svg>
